<svg width="68" height="55" viewBox="0 0 68 55" fill="none" xmlns="http://www.w3.org/2000/svg">
<path d="M21.3613 0C27.8074 5.52511 24.6476 23.984 32.1048 24.1096C32.2312 9.79452 30.4617 0 21.3613 0Z" fill="#563835"/>
<path d="M1.01172 21.4728C12.3872 19.087 24.1418 37.5459 32.1047 29.7605C23.2571 20.845 10.7441 12.055 1.01172 21.4728Z" fill="#563835"/>
<path d="M0 54.624C7.33086 42.4437 31.9777 48.4711 32.1041 34.5327C17.5688 34.4072 0.126394 37.672 0 54.624Z" fill="#563835"/>
<path d="M47.1453 0.125C38.1713 0.125 36.2754 9.91952 36.2754 24.109C43.6062 24.109 40.5728 5.52454 47.1453 0.125Z" fill="#563835"/>
<path d="M67.2414 21.8503C57.7618 12.3069 44.996 20.9713 36.1484 29.7612C43.9849 37.5466 55.8659 19.2133 67.2414 21.8503Z" fill="#563835"/>
<path d="M36.1489 34.5312C36.0225 48.4696 60.7958 42.6933 68.0002 54.9993C68.0002 38.0472 50.6842 34.5312 36.1489 34.5312Z" fill="#563835"/>
</svg>
