<svg width="39" height="39" viewBox="0 0 39 39" fill="none" xmlns="http://www.w3.org/2000/svg">
<path d="M4.0625 19.5C4.0625 12.2232 4.0625 8.58325 6.32288 6.32288C8.58325 4.0625 12.2216 4.0625 19.5 4.0625C26.7768 4.0625 30.4167 4.0625 32.6771 6.32288C34.9375 8.58325 34.9375 12.2216 34.9375 19.5C34.9375 26.7768 34.9375 30.4167 32.6771 32.6771C30.4167 34.9375 26.7784 34.9375 19.5 34.9375C12.2232 34.9375 8.58325 34.9375 6.32288 32.6771C4.0625 30.4167 4.0625 26.7784 4.0625 19.5Z" stroke="white" stroke-width="1.33588" stroke-linecap="round" stroke-linejoin="round"/>
<path d="M28.4505 10.5625H28.4342M26.8125 19.5C26.8125 21.4394 26.0421 23.2994 24.6707 24.6707C23.2994 26.0421 21.4394 26.8125 19.5 26.8125C17.5606 26.8125 15.7006 26.0421 14.3293 24.6707C12.9579 23.2994 12.1875 21.4394 12.1875 19.5C12.1875 17.5606 12.9579 15.7006 14.3293 14.3293C15.7006 12.9579 17.5606 12.1875 19.5 12.1875C21.4394 12.1875 23.2994 12.9579 24.6707 14.3293C26.0421 15.7006 26.8125 17.5606 26.8125 19.5Z" stroke="white" stroke-width="1.33588" stroke-linecap="round" stroke-linejoin="round"/>
</svg>
