<svg width="98" height="26" viewBox="0 0 98 26" fill="none" xmlns="http://www.w3.org/2000/svg">
<rect y="14.5195" width="25" height="1" fill="#563835"/>
<rect x="73" y="14.5195" width="25" height="1" fill="#563835"/>
<g clip-path="url(#clip0_184_90)">
<path d="M43.0527 0C46.0862 2.61187 44.5992 11.3379 48.1085 11.3973C48.168 4.63014 47.3353 0 43.0527 0Z" fill="#563835"/>
<path d="M33.4766 10.1504C38.8297 9.02255 44.3613 17.7486 48.1085 14.0682C43.945 9.8536 38.0565 5.69835 33.4766 10.1504Z" fill="#563835"/>
<path d="M33 25.8216C36.4498 20.0636 48.0483 22.9129 48.1078 16.3239C41.2677 16.2645 33.0595 17.8079 33 25.8216Z" fill="#563835"/>
<path d="M55.1856 0.0585938C50.9625 0.0585938 50.0703 4.68873 50.0703 11.3965C53.5201 11.3965 52.0926 2.61111 55.1856 0.0585938Z" fill="#563835"/>
<path d="M64.6437 10.3282C60.1827 5.81674 54.1753 9.91263 50.0117 14.0679C53.6995 17.7483 59.2905 9.08158 64.6437 10.3282Z" fill="#563835"/>
<path d="M50.0119 16.3242C49.9525 22.9133 61.6105 20.1827 65.0008 26C65.0008 17.9863 56.8521 16.3242 50.0119 16.3242Z" fill="#563835"/>
</g>
<defs>
<clipPath id="clip0_184_90">
<rect width="32" height="26" fill="white" transform="translate(33)"/>
</clipPath>
</defs>
</svg>
